<?xml version="1.0" encoding="utf-8"?>
<!-- Generator: Adobe Illustrator 20.0.0, SVG Export Plug-In . SVG Version: 6.00 Build 0)  -->
<svg version="1.1" id="Ebene_1" xmlns="http://www.w3.org/2000/svg" xmlns:xlink="http://www.w3.org/1999/xlink" x="0px" y="0px"
	 width="136.9px" height="55.2px" viewBox="0 0 136.9 55.2" style="enable-background:new 0 0 136.9 55.2;" xml:space="preserve">
<style type="text/css">
	.st0{fill:#FFFFFF;}
</style>
<g>
	<path class="st0" d="M4.7,33.5c-1.1,0-2.6-0.3-4.7-0.8v-2.1c1.6,0.4,3,0.5,4.2,0.5c1.9,0,2.9-0.7,2.9-2c0-0.9-0.4-1.4-1.6-2L3,25.7
		c-2-1.1-2.8-2.3-2.8-4.2c0-2.9,2-4.6,5.4-4.6c1.1,0,2.2,0.2,4.2,0.8v2.1c-1.3-0.4-2.6-0.6-3.8-0.6c-1.7,0-2.5,0.6-2.5,1.8
		c0,0.9,0.4,1.3,1.9,2.1l2.1,1.1c2.1,1,2.9,2.3,2.9,4.4C10.4,31.7,8.3,33.5,4.7,33.5"/>
	<path class="st0" d="M16.3,33.4c-2.6,0-3.6-1-3.6-3.6v-6.4h-1.5v-1.9h1.5V19l3.3-1.2v3.7h3.4v1.9H16v5.9c0,1.3,0.4,1.8,1.8,1.8
		c0.5,0,0.8,0,1.6-0.1v1.8C17.7,33.3,17,33.4,16.3,33.4"/>
	<path class="st0" d="M21.3,21.5h3.3v11.8h-3.3V21.5z M22.9,20c-1.4,0-2-0.4-2-1.6c0-1.1,0.5-1.6,2-1.6c1.5,0,2,0.4,2,1.6
		C25,19.6,24.4,20,22.9,20"/>
	<path class="st0" d="M33.1,17.7c-1.4,0-1.9,0.4-1.9,1.8v2h2.5v1.9h-2.5v9.8h-3.3v-9.8h-1.5v-1.9h1.5v-2.2c0-2.6,1.2-3.7,3.8-3.7
		c0.7,0,1.3,0.1,2.8,0.5v1.7C34.1,17.7,33.6,17.7,33.1,17.7"/>
	<path class="st0" d="M39.8,33.4c-2.6,0-3.6-1-3.6-3.6v-6.4h-1.5v-1.9h1.5V19l3.3-1.2v3.7h3.4v1.9h-3.4v5.9c0,1.3,0.4,1.8,1.8,1.8
		c0.5,0,0.8,0,1.6-0.1v1.8C41.2,33.3,40.5,33.4,39.8,33.4"/>
	<path class="st0" d="M52,33.3v-0.8c-1.8,0.8-2.8,1-3.9,1c-1.1,0-2.2-0.5-2.8-1.2c-0.6-0.7-0.8-1.5-0.8-3.2v-7.7h3.3v7.4
		c0,1.7,0.5,2.3,2.1,2.3c0.5,0,1.1-0.1,1.9-0.2v-9.4h3.3v11.8H52z"/>
	<path class="st0" d="M65.6,33.3v-7.4c0-1.7-0.6-2.3-2.1-2.3c-0.5,0-1.1,0.1-1.9,0.2v9.4h-3.3V21.5h3.2v0.8c2.1-0.8,2.9-1,3.9-1
		c1.1,0,2.2,0.5,2.8,1.2c0.6,0.7,0.8,1.6,0.8,3.2v7.7H65.6z"/>
	<path class="st0" d="M79.1,23.5c-0.5-0.1-0.8-0.1-1.2-0.1c-2.1,0-3.3,1.4-3.3,3.9c0,2.4,1.1,3.7,3,3.7c0.5,0,0.9,0,1.5-0.1V23.5z
		 M80.5,37.6c-1,0.5-2.3,0.8-3.9,0.8c-1.2,0-2.2-0.2-4.7-0.7v-2c1.2,0.3,2.7,0.5,3.9,0.5c2.5,0,3.3-0.6,3.3-2.7v-1
		c-1.8,0.7-2.5,0.9-3.2,0.9c-2.9,0-4.8-2.2-4.8-5.8c0-3.7,2.3-6.4,5.5-6.4c0.9,0,1.8,0.2,2.5,0.7v-0.5h3.2v12.2
		C82.4,35.7,81.9,36.8,80.5,37.6"/>
	<polygon class="st0" points="0.7,38.8 0.7,54.9 9.8,54.9 9.8,52.7 4.1,52.7 4.1,38.8 	"/>
	<path class="st0" d="M11.4,43.2h3.3v11.8h-3.3V43.2z M13.1,41.7c-1.4,0-2-0.4-2-1.6c0-1.1,0.5-1.6,2-1.6c1.5,0,2,0.4,2,1.6
		C15.1,41.3,14.5,41.7,13.1,41.7"/>
	<path class="st0" d="M22.4,44.7c-1.5,0-2.1,1-2.1,3.1h4.1C24.4,45.5,23.9,44.7,22.4,44.7 M20.3,49.6c0,2.4,1,3.3,3.8,3.3
		c0.9,0,1.8-0.1,3-0.2v1.7c-2.3,0.5-3.5,0.7-4.4,0.7c-3.7,0-5.8-2.1-5.8-5.9c0-3.9,2.1-6.3,5.6-6.3c2.4,0,4.1,1.1,4.7,3.2
		c0.3,0.8,0.3,1.5,0.3,3.5H20.3z"/>
	<path class="st0" d="M34.7,45.4c-0.5,0-0.9,0-1.5,0.2V53c0.4,0,0.7,0.1,1,0.1c2.3,0,3.6-1.4,3.6-4C37.7,46.7,36.6,45.4,34.7,45.4
		 M34.5,55.1c-1.2,0-2.7-0.3-4.7-0.8V37.3h3.3v6.6c1.8-0.7,2.5-0.9,3.2-0.9c2.9,0,4.8,2.3,4.8,5.8C41.1,52.5,38.4,55.1,34.5,55.1"/>
	<path class="st0" d="M48.2,44.7c-1.5,0-2.1,1-2.1,3.1h4.1C50.1,45.5,49.6,44.7,48.2,44.7 M46,49.6c0,2.4,1,3.3,3.8,3.3
		c0.9,0,1.8-0.1,3-0.2v1.7c-2.3,0.5-3.5,0.7-4.4,0.7c-3.7,0-5.8-2.1-5.8-5.9c0-3.9,2.1-6.3,5.6-6.3c2.4,0,4.1,1.1,4.7,3.2
		c0.3,0.8,0.3,1.5,0.3,3.5H46z"/>
	<path class="st0" d="M63,54.9v-7.4c0-1.7-0.6-2.3-2.1-2.3c-0.5,0-1.1,0.1-1.9,0.2v9.4h-3.3V43.2h3.2v0.8c2.1-0.8,2.9-1,3.9-1
		c1.1,0,2.2,0.5,2.8,1.2c0.6,0.7,0.8,1.6,0.8,3.2v7.7H63z"/>
	<path class="st0" d="M75.2,49.4c-1.1,0-1.4,0-1.9,0.1c-1.1,0.2-1.6,0.7-1.6,1.7c0,1.1,0.7,1.7,2,1.7c0.5,0,1-0.1,1.5-0.2V49.4z
		 M75.3,54.9v-0.8c-1.8,0.7-2.5,0.9-3.3,0.9c-2.2,0-3.6-1.4-3.6-3.6c0-2.2,1.3-3.4,3.8-3.7c1-0.1,1.9-0.1,3-0.1v-1
		c0-1.2-0.6-1.6-2.1-1.6c-1.1,0-2.5,0.1-3.7,0.4v-1.8c2.3-0.6,3.7-0.8,4.8-0.8c1.3,0,2.5,0.3,3.2,0.9c0.7,0.6,1,1.5,1,3.3v7.8H75.3z
		"/>
	<path class="st0" d="M88.6,54.9v-0.8c-1.9,0.8-2.8,1-3.9,1c-1.1,0-2.2-0.5-2.8-1.2c-0.6-0.7-0.8-1.5-0.8-3.2v-7.6h3.3v7.4
		c0,1.7,0.5,2.3,2.1,2.3c0.5,0,1.1-0.1,1.9-0.2v-9.4h3.3v11.8H88.6z"/>
	<path class="st0" d="M136.9,1.8c-0.2-0.5-0.5-1.1-0.8-1.5l-0.1-0.1L136,0.3c-0.8,0.6-1.4,1.3-2.1,1.9c-0.2,0.2-0.3,0.3-0.5,0.5
		l-0.1,0.1c-0.9,0.9-1.8,1.8-2.8,2.7l-0.1,0.1c-1.7,1.6-5.7,5.3-8.6,3.7c-1.9-1-3.1-3.4-4.3-5.6c-0.8-1.4-1.5-2.8-2.3-3.7L115.1,0
		L115,0c-1.5,0.9-3.6,2.3-5.2,3.9l-0.1,0.1l0.1,0.1c4.1,4.1,7.4,7.7,10,10.9c2.9,3.6,5.8,7.6,5.7,13.4c0,0.8-0.2,1.9-0.5,2.6
		c-2,5-7.5,6.5-12.2,7.3l-0.1,0l0.1,0.1c1.6,3.9,2.3,9.1,2,16.6l0,0.1h3.8V44.6c6.2-2.4,9.7-8.5,9.7-16.8c0-3.6-0.7-6.8-1.3-10
		c-0.2-0.8-0.3-1.6-0.5-2.5c1.4-1.8,2.8-3.5,4.1-5.3c2.1-2.6,4.3-5.3,6.3-8.1L136.9,1.8L136.9,1.8z"/>
	<path class="st0" d="M110.4,38.3L110.4,38.3L110.4,38.3c-3.7-0.2-6.1-0.9-8.5-2.4c-3.3-2.1-4.8-4.8-4.5-8.4
		c0.4-4.7,2.9-7.8,5.5-10.4c3.1-3,6.4-5.5,9.5-7.2l0.1-0.1l-0.1-0.1c-0.4-0.4-3.9-3.7-4.2-3.9l-0.1-0.1l-0.1,0.1
		c-0.3,0.2-0.5,0.5-0.8,0.9c-1.9,2-4.8,5-7.9,3.9c-2.9-1-5.2-3.7-7.5-6.3c-1.1-1.2-2-2.4-3.1-3.3l-0.1-0.1L88.7,1
		c-0.3,0.5-0.6,0.9-0.9,1.6l0,0.1l0,0c1.3,2.1,2.7,4.2,4,6.2c0.9,1.3,1.8,2.7,2.7,4.1c0.1,0.2,0.3,0.4,0.5,0.7
		c0.6,0.9,1.6,2.3,1.6,2.8c0,0.5-0.2,1.4-0.5,2.1C96.1,19,96,19.2,96,19.4c-0.8,3.1-1.6,6.5-1.4,9.6c0.4,4.9,3,8.1,5.2,10.3
		c2.8,2.8,6.4,4.3,9.8,5.6c-0.3,1-0.6,2-0.9,3c-0.7,2.2-1.4,4.5-1.9,7l0,0.1h5.6l0-0.1C112.8,50.1,112.7,43.2,110.4,38.3"/>
</g>
</svg>
